name GIL06_fast3.mot
datacolumns 153
datarows 4
range 0.59166670 0.61666667
endheader

                time	           pelvis_tx	           pelvis_ty	           pelvis_tz	         pelvis_tilt	         pelvis_list	     pelvis_rotation	       hip_flexion_r	     hip_adduction_r	      hip_rotation_r	        knee_angle_r	       ankle_angle_r	    subtalar_angle_r	         mtp_angle_r	       hip_flexion_l	     hip_adduction_l	      hip_rotation_l	        knee_angle_l	       ankle_angle_l	    subtalar_angle_l	         mtp_angle_l	    lumbar_extension	      lumbar_bending	     lumbar_rotation	     ground_force_vx	     ground_force_vy	     ground_force_vz	     ground_force_px	     ground_force_py	     ground_force_pz	     ground_force_vx	     ground_force_vy	     ground_force_vz	     ground_force_px	     ground_force_py	     ground_force_pz	     ground_torque_x	     ground_torque_y	     ground_torque_z	     ground_torque_x	     ground_torque_y	     ground_torque_z	    ground_marker_px	    ground_marker_py	    ground_marker_pz	    ground_marker_px	    ground_marker_py	    ground_marker_pz	    ground_marker_px	    ground_marker_py	    ground_marker_pz	    ground_marker_px	    ground_marker_py	    ground_marker_pz	    ground_marker_px	    ground_marker_py	    ground_marker_pz	    ground_marker_px	    ground_marker_py	    ground_marker_pz	    ground_marker_px	    ground_marker_py	    ground_marker_pz	    ground_marker_px	    ground_marker_py	    ground_marker_pz	    ground_marker_px	    ground_marker_py	    ground_marker_pz	    ground_marker_px	    ground_marker_py	    ground_marker_pz	    ground_marker_px	    ground_marker_py	    ground_marker_pz	    ground_marker_px	    ground_marker_py	    ground_marker_pz	    ground_marker_px	    ground_marker_py	    ground_marker_pz	    ground_marker_px	    ground_marker_py	    ground_marker_pz	    ground_marker_px	    ground_marker_py	    ground_marker_pz	    ground_marker_px	    ground_marker_py	    ground_marker_pz	    ground_marker_px	    ground_marker_py	    ground_marker_pz	    ground_marker_px	    ground_marker_py	    ground_marker_pz	    ground_marker_px	    ground_marker_py	    ground_marker_pz	    ground_marker_px	    ground_marker_py	    ground_marker_pz	    ground_marker_px	    ground_marker_py	    ground_marker_pz	    ground_marker_px	    ground_marker_py	    ground_marker_pz	    ground_marker_px	    ground_marker_py	    ground_marker_pz	    ground_marker_px	    ground_marker_py	    ground_marker_pz	    ground_marker_px	    ground_marker_py	    ground_marker_pz	    ground_marker_px	    ground_marker_py	    ground_marker_pz	    ground_marker_px	    ground_marker_py	    ground_marker_pz	    ground_marker_px	    ground_marker_py	    ground_marker_pz	    ground_marker_px	    ground_marker_py	    ground_marker_pz	    ground_marker_px	    ground_marker_py	    ground_marker_pz	    ground_marker_px	    ground_marker_py	    ground_marker_pz	    ground_marker_px	    ground_marker_py	    ground_marker_pz	    ground_marker_px	    ground_marker_py	    ground_marker_pz	    ground_marker_px	    ground_marker_py	    ground_marker_pz	    ground_marker_px	    ground_marker_py	    ground_marker_pz	    ground_marker_px	    ground_marker_py	    ground_marker_pz	    ground_marker_px	    ground_marker_py	    ground_marker_pz	
          0.59166670	          0.73088890	          0.82546914	         -0.25277922	         -3.37482262	         -2.37980986	          1.04215968	         31.73254395	          4.58233929	          3.74273062	        -19.20209122	         -9.13831520	          0.00000000	          0.00000000	        -10.34742641	         -6.28450871	         -6.11683464	        -33.49823380	        -20.17365074	          0.00000000	          0.00000000	         -4.19271040	          2.88320041	         -2.91379380	       -199.10756786	        729.18164751	        -36.20408510	          0.84762244	          0.00000000	         -0.19266020	         37.39514963	         80.33415272	         -8.98539999	          0.29389227	          0.00000000	         -0.30932333	          0.00000000	         -0.44872705	          0.00000000	          0.00000000	         -0.53498810	          0.00000000	          0.62333488	          0.74840963	         -0.24858747	          0.60641325	          0.75443625	         -0.16882429	          0.60197091	          0.74895680	         -0.32429343	          0.78815413	          0.41499454	         -0.19290651	          0.51516610	          0.39669135	         -0.34924674	          0.84532338	          0.06085185	         -0.19642769	          0.24893793	          0.14489140	         -0.32494849	          0.73088890	          0.82546914	         -0.25277922	          0.73440552	          0.82980675	         -0.12970938	          0.72737229	          0.82113159	         -0.37584904	          0.48751771	          0.89383179	         -0.21393195	          0.48372781	          0.89298916	         -0.26844171	          0.79699636	          0.41469505	         -0.12195599	          0.50759482	          0.40356976	         -0.42001122	          0.78066629	          0.40302065	         -0.26918802	          0.52358592	          0.38362539	         -0.25597584	          0.83664757	          0.05907879	         -0.15895988	          0.23431501	          0.15701003	         -0.35958317	          0.85708100	          0.06936263	         -0.23157144	          0.25911343	          0.16003011	         -0.28423589	          0.50421214	          1.31667805	         -0.26220357	          0.63535345	          1.25772166	         -0.22099978	          0.63776350	          1.25843251	         -0.30644009	          0.62075305	          1.25174654	         -0.27642429	          0.67675072	          1.18141735	         -0.27419573	          0.86464018	          0.60882711	         -0.12224798	          0.73449975	          0.53539771	         -0.36338240	          0.82093644	          0.61128569	         -0.13754277	          0.69095004	          0.55957609	         -0.36481172	          0.83446360	          0.53569418	         -0.14996171	          0.65858096	          0.49437803	         -0.36157888	          0.90648109	          0.21993995	         -0.16754556	          0.30205497	          0.23429455	         -0.43367550	          0.86383951	          0.21470825	         -0.18194394	          0.31212097	          0.24102204	         -0.38871673	          0.95092559	          0.05040715	         -0.19408964	          0.28330538	          0.05304411	         -0.32701346	
          0.60000002	          0.74398077	          0.82704222	         -0.25076437	         -3.05278683	         -2.70096445	          0.82318580	         31.15459442	          5.19996834	          3.21089888	        -20.53647804	         -8.35175419	          0.00000000	          0.00000000	         -9.46219635	         -7.35672665	         -6.14770365	        -36.48155212	        -23.17890930	          0.00000000	          0.00000000	         -4.35401773	          3.34737134	         -2.19272304	       -207.16222706	        761.44788813	        -39.92537064	          0.85228369	          0.00000000	         -0.19212776	         15.58919472	         39.48195931	         -5.56681116	          0.30364053	          0.00000000	         -0.30691086	          0.00000000	         -1.08261328	          0.00000000	          0.00000000	         -0.31174402	          0.00000000	          0.63698000	          0.74932081	         -0.24622542	          0.61973089	          0.75582808	         -0.16662873	          0.61566728	          0.74932730	         -0.32206890	          0.79932821	          0.41648725	         -0.19204777	          0.53601080	          0.39394182	         -0.35197264	          0.84650642	          0.06059361	         -0.19642329	          0.26336110	          0.15057608	         -0.32599977	          0.74398077	          0.82704222	         -0.25076437	          0.74718362	          0.83216590	         -0.12825070	          0.74077791	          0.82191861	         -0.37327802	          0.49974024	          0.89447242	         -0.21387692	          0.49625012	          0.89285684	         -0.26850113	          0.80776346	          0.41563350	         -0.12105221	          0.52866697	          0.40153816	         -0.42268765	          0.79206258	          0.40627971	         -0.26807082	          0.54684156	          0.37677291	         -0.25975245	          0.83803737	          0.05900960	         -0.15889977	          0.24891973	          0.16306472	         -0.36057910	          0.85855943	          0.06844535	         -0.23153873	          0.27474651	          0.16378506	         -0.28557122	          0.51647884	          1.31771004	         -0.25992864	          0.64863312	          1.25916755	         -0.21968856	          0.65024936	          1.26014531	         -0.30469811	          0.63328135	          1.25304532	         -0.27499098	          0.68993795	          1.18324208	         -0.27327192	          0.87657166	          0.60952508	         -0.11949334	          0.75305682	          0.53757411	         -0.36325026	          0.83342493	          0.61317563	         -0.13484670	          0.70875978	          0.56018758	         -0.36439788	          0.84612876	          0.53777009	         -0.14749889	          0.67856741	          0.49392572	         -0.36255884	          0.91189986	          0.21777925	         -0.16788223	          0.31803480	          0.23778524	         -0.43494964	          0.86907339	          0.21350254	         -0.18231788	          0.32941443	          0.24374641	         -0.38963673	          0.95224321	          0.04853878	         -0.19440827	          0.29094881	          0.05539538	         -0.32715705	
          0.60833335	          0.75679094	          0.82878321	         -0.24873179	         -2.70514297	         -3.05297232	          0.59532630	         30.44437027	          5.87968779	          2.76249409	        -21.67059898	         -7.41586733	          0.00000000	          0.00000000	         -8.50440025	         -8.44773769	         -6.18777943	        -39.53569412	        -25.56188393	          0.00000000	          0.00000000	         -4.69685745	          3.57312679	         -1.43059158	       -208.47055925	        790.27293822	        -43.27922699	          0.85570300	          0.00000000	         -0.19182527	          3.84096862	         19.44587196	         -2.49193834	          0.31011221	          0.00000000	         -0.30560513	          0.00000000	         -1.54642358	          0.00000000	          0.00000000	         -0.13529881	          0.00000000	          0.65037417	          0.75037789	         -0.24377151	          0.63279754	          0.75737727	         -0.16438068	          0.62912953	          0.74977094	         -0.31978053	          0.80962616	          0.41779509	         -0.19130848	          0.55734748	          0.39119080	         -0.35458043	          0.84737945	          0.06044187	         -0.19645336	          0.27877223	          0.15633714	         -0.32697272	          0.75679094	          0.82878321	         -0.24873179	          0.75966936	          0.83475220	         -0.12678231	          0.75391251	          0.82281423	         -0.37068129	          0.51174790	          0.89512569	         -0.21389374	          0.50856525	          0.89271808	         -0.26863715	          0.81775534	          0.41639629	         -0.12028588	          0.55015862	          0.39948666	         -0.42523277	          0.80249846	          0.40878677	         -0.26660159	          0.57042509	          0.37094608	         -0.26194069	          0.83910805	          0.05902705	         -0.15887903	          0.26460552	          0.16907363	         -0.36157525	          0.85979527	          0.06759740	         -0.23154028	          0.29103324	          0.16797696	         -0.28685403	          0.52929521	          1.31888938	         -0.25797608	          0.66203898	          1.26051128	         -0.21863613	          0.66278553	          1.26135242	         -0.30326042	          0.64579004	          1.25433338	         -0.27360851	          0.70288569	          1.18454802	         -0.27231848	          0.88792509	          0.61012858	         -0.11702625	          0.77182412	          0.54002357	         -0.36311308	          0.84439909	          0.61476922	         -0.13234390	          0.72638178	          0.56090349	         -0.36414251	          0.85680985	          0.53963035	         -0.14528978	          0.69838369	          0.49347416	         -0.36308298	          0.91666973	          0.21573003	         -0.16825144	          0.33510959	          0.24099497	         -0.43619841	          0.87350309	          0.21246494	         -0.18296863	          0.34759766	          0.24638323	         -0.39073604	          0.95321488	          0.04723511	         -0.19473417	          0.30019763	          0.05841881	         -0.32747537	
          0.61666667	          0.76931095	          0.83064997	         -0.24672931	         -2.34596920	         -3.43026972	          0.35331315	         29.58440781	          6.60492849	          2.44842625	        -22.52918243	         -6.43355703	          0.00000000	          0.00000000	         -7.47346354	         -9.53329086	         -6.24593353	        -42.62973022	        -27.19063568	          0.00000000	          0.00000000	         -5.08183956	          3.73367763	         -1.30433214	       -204.36765201	        811.89565914	        -46.31386195	          0.85820844	          0.00000000	         -0.19158818	         -1.27084309	         10.05309539	         -0.10454994	          0.31387491	          0.00000000	         -0.30516989	          0.00000000	         -1.84841687	          0.00000000	          0.00000000	         -0.03049244	          0.00000000	          0.66347730	          0.75156689	         -0.24130648	          0.64557743	          0.75906569	         -0.16214791	          0.64234054	          0.75028217	         -0.31749523	          0.81882745	          0.41884470	         -0.19063815	          0.57910866	          0.38855305	         -0.35700521	          0.84800255	          0.06036040	         -0.19650784	          0.29510322	          0.16214493	         -0.32780746	          0.76931095	          0.83064997	         -0.24672931	          0.77184075	          0.83751452	         -0.12532078	          0.76678121	          0.82378536	         -0.36813784	          0.52355826	          0.89579529	         -0.21397099	          0.52069181	          0.89260066	         -0.26882285	          0.82678080	          0.41694662	         -0.11960724	          0.57198930	          0.39750654	         -0.42758426	          0.81114399	          0.41158780	         -0.26551205	          0.59468752	          0.36565688	         -0.26473442	          0.83990842	          0.05908572	         -0.15888989	          0.28129786	          0.17498614	         -0.36251718	          0.86027038	          0.06707645	         -0.23167138	          0.30784616	          0.17351755	         -0.28792864	          0.54165262	          1.32035887	         -0.25653550	          0.67455876	          1.26171362	         -0.21754438	          0.67538202	          1.26216960	         -0.30185735	          0.65825295	          1.25565422	         -0.27233517	          0.71527773	          1.18541408	         -0.27068880	          0.89869910	          0.61052209	         -0.11491975	          0.79071420	          0.54278493	         -0.36299127	          0.85456342	          0.61617470	         -0.12965009	          0.74486524	          0.56165975	         -0.36421663	          0.86681271	          0.54121596	         -0.14348614	          0.71917760	          0.49323878	         -0.36388353	          0.92080438	          0.21381201	         -0.16857958	          0.35323420	          0.24391691	         -0.43738812	          0.87720764	          0.21156682	         -0.18334813	          0.36599311	          0.24916016	         -0.39256579	          0.95392847	          0.04635525	         -0.19505182	          0.31125638	          0.06205350	         -0.32799786	
